<?xml version="1.0" encoding="utf-8"?>
<!-- Generator: Adobe Adobe Illustrator 24.2.0, SVG Export Plug-In . SVG Version: 6.00 Build 0)  -->
<svg version="1.1" xmlns="http://www.w3.org/2000/svg" xmlns:xlink="http://www.w3.org/1999/xlink" x="0px" y="0px"
	 width="1424.02px" height="2041.01px" viewBox="0 0 1424.02 2041.01" style="enable-background:new 0 0 1424.02 2041.01;"
	 xml:space="preserve">
<style type="text/css">
	.st0{fill:none;stroke:#000000;stroke-width:0;stroke-linecap:round;stroke-linejoin:round;}
</style>
<g id="Layer_4">
	<path d="M1064.43,1357.73L1064.43,1357.73z"/>
	<path d="M664.69,1639.57L664.69,1639.57z"/>
	<path d="M680.18,1762.37c-8.35,0.88-12.11,0.39-19.97-2.13c-7.93-2.75-15.12-9.79-20.67-17.85c-1.91-2.89-3.91-5.83-5.17-9.07
		c-0.01-0.08-0.01-0.21,0.08-0.22c0.09,0.05,0.17,0.12,0.25,0.18c-0.09-0.11-0.13-0.29-0.27-0.33c-0.15,0-0.28,0.11-0.32,0.25
		c-0.1,5.72,1.96,11.4,4.35,16.54c0.01,0.01,0.01,0.02,0.02,0.03c-0.29,0.03-0.59,0.05-0.88,0.09
		c-16.48,1.9-30.79,11.31-43.44,14.88c-8.19,2.05-12.42,1.82-19.08-1.5c-5.27-2.74-7.33-3.72-10.69-7.59
		c-2.43-2.8-5.46-10.46-7.42-15.97c0.27,7.15,0.36,14.83,4.25,21.1c1.68,2.66,3.88,4.91,6.29,6.9c-0.17,0.04-0.35,0.07-0.52,0.11
		c-0.11-0.08-0.22-0.15-0.36-0.18c-0.66-0.14-1.32,0.24-1.96,0.38c-0.76,0.31-1.88,0.52-2.36,1.23c-4.69,0.16-9.55-0.04-12.21-0.56
		c-6.01-0.79-11.99-3.19-13.18-4.49c-8.89-8.35-11.99-16.85-15.76-32.65c-2.28,13.69-0.33,30.64,11.78,39.21
		c-0.4,0.11-0.81,0.24-1.2,0.38c-2.33-0.8-4.02-1.51-6.02-2.44c-13.91-6.53-20.18-14.9-25.13-30.07
		c-1.27,14.27,4.08,25.1,14.46,30.31c-8.81-0.16-15.62-0.39-23.16-2.51c-13.04-4.83-24.47-16.66-34.47-31
		c3.51,14.5,11.53,28.29,23.58,34.77c-6.07,0.12-14.23-2.04-16.6-3.17c-4.01-1.7-7.61-4.19-11.06-6.83
		c-0.12-0.09-0.41-0.32-0.77-0.61c-4.42-3.61-8.91-7.2-12.77-11.43c-4.91-5.65-5.69-6.43-10.17-13.74c-1.5-2.89-3.37-5.67-3.75-8.8
		c-0.57,1.65-0.2,3.52-0.09,5.24c0.52,4.33,1.68,8.58,3.38,12.6c3.5,8.67,9.97,16.97,18.02,22.66c-0.21,0-0.41,0.01-0.62,0.01
		c-8.76,0.08-15.05-1.3-23.87-3.31c-3.28-0.75-6.56-1.58-9.69-2.82c-3.2-1.43-6.21-3.27-9.11-5.24c-2.01-1.42-2.15-1.55-2.54-1.85
		c-6.89-5.31-15.38-15.31-17.23-18.04c-4.6-6.13-8.95-12.46-12.78-19.1c4.06,19.38,13.6,40.55,31.97,50.04
		c9.07,4.81,19.68,4.74,29.68,4.24c5.19-0.36,10.32-1.47,15.21-3.24c6.93,4.63,14.95,7.33,23.22,6.72c3.84-0.23,7.7-0.93,11.21-2.51
		c6.36,2.98,13.78,3.97,22.19,2.06c4.09-0.76,8.15-1.8,12.03-3.3c4.09,1.71,8.87,2.62,14.26,2.6c0.74-0.03,4.47-0.1,3.24-0.39
		c-0.32-0.1-0.61-0.19-0.9-0.29c0.23-0.03,0.46-0.06,0.69-0.1c0.05,0,0.1-0.01,0.15,0c0-0.01,0-0.01,0-0.02c0.01,0,0.03,0,0.04-0.01
		c5.66,2.81,12.34,2.93,18.51,2.09c3.4-0.47,6.7-1.46,9.88-2.73c0.41,0.19,0.95,0.18,1.39-0.07c0.45-0.21,1.37-0.5,2.08-0.89
		c0.14-0.06,0.28-0.11,0.43-0.16c-0.04,0-0.08,0-0.12,0c0.21-0.09,0.42-0.18,0.63-0.29c0.08-0.07,0.14-0.15,0.19-0.24
		c0.43-0.23,0.85-0.47,1.26-0.73c0.54,0.42,1.08,0.83,1.63,1.22c4.2,3.19,9.1,5.52,14.41,5.88c13.28,1.34,24.52-7.23,35.07-14.07
		c4.87-3.28,9.77-6.53,14.99-9.23c1.34-0.71,2.71-1.37,4.09-2c7.11,13.86,19.99,19.72,35.24,15.78c3.29-0.93,6.41-2.41,9.29-4.26
		C682.26,1762.06,681.22,1762.23,680.18,1762.37z"/>
	<path class="st0" d="M635,1742.53c-0.01-0.05-0.02-0.11-0.04-0.16"/>
	<path d="M792.91,1766.9c-6.1,1.6-12.79,1.26-19.46,1c-8.58-0.61-11.92-0.24-19.44-2.91c-9.96-3.52-21.44-11.88-30.45-21.92
		c3.76,9.63,10.19,18.8,18.68,24.92c-6.98,1.74-13.43,1.85-21.2,1.44c-7.77-0.31-13.44-1.83-19.7-5.01
		c-9.76-5.24-10.43-6.06-17.73-12.94c-3.49-3.47-7.51-8.19-10.04-11.49c-0.52-0.61-2.41-3.36-3.55-4.45
		c-0.05-0.03-0.08-0.09-0.14-0.1c-0.06,0-0.05,0.07-0.05,0.11c0.02-0.03,0-0.1,0.07-0.04c0.55,1.01,0.81,2.14,1.19,3.22
		c0.96,2.91,2.09,5.76,3.37,8.54c3.82,8.27,9.21,16.04,16.59,21.51c12.51,9.66,26.47,9.65,41.06,5.28c3.97-1.2,7.74-3.03,11.19-5.32
		c3.06,2.07,6.38,3.75,9.94,4.91c4.77,1.49,9.82,1.58,14.75,0.99c4.44-0.45,8.88-1.13,13.19-2.31c4.26-1.18,8.49-2.74,12.08-5.36
		C793.94,1766.52,793.38,1766.81,792.91,1766.9z"/>
	<path d="M837.44,1766.66c-4.9,0.68-10.46,0.78-15.57,0.18c-0.36-0.04-0.74-0.09-0.89-0.11c-0.06-0.01-0.12-0.02-0.18-0.02
		c-18.94-2.52-38.93-15.18-52.54-32.15c8.3,25.36,32.84,43.73,59.93,36.48c3.8-1,7.45-2.55,10.88-4.46
		C840.11,1766.13,837.84,1766.66,837.44,1766.66z"/>
	<path d="M915,1758.49c-10.99,0.05-15.16-0.44-24.21-7.19c-0.03-0.02-0.04-0.03-0.07-0.06c-2.14-1.69-4.11-3.6-5.79-5.76
		c-2.01-2.54-8.39-12.01-9.63-17.58c-0.62,5.65,1.05,11.57,2.86,16.89c1.87,5.44,5.23,10.21,9.52,13.97
		c-0.13,0.06-0.28,0.13-0.45,0.2c-5.22,2.21-9.63,3.15-14.52,3.37c-13.6,0.82-24.9-2.81-34.78-9.72
		c-5.78-4.55-10.53-10.26-15.34-15.79c2.78,7.65,6.14,15.38,11.81,21.35c11.91,12.16,28.69,14.18,44.01,7.51
		c3.33-1.49,6.34-3.63,8.99-6.12c0.21-0.21,0.4-0.39,0.57-0.55c1.64,1.41,3.42,2.68,5.29,3.78c7.31,4,16.19,3.31,23.98,1.18
		c6.21-1.77,11.99-4.86,17.05-8.86C927.07,1757.26,921.9,1758.26,915,1758.49z"/>
	<path d="M967.75,1753.84c-1.41-0.07-2.82-0.21-4.22-0.4c-6.35-0.91-12.55-2.61-18.66-4.52c-8.94-2.86-12.21-4.03-20.21-8.34
		c-6.67-3.71-13.05-7.93-19.3-12.32c-3.76-2.51-7.24-5.59-11.52-7.19c3.95,3.54,5.86,7.14,9.37,11.12
		c5.4,6.46,11.62,12.3,18.71,16.87c12.46,7.97,33.69,10.43,47.78,6.07c1.17-0.39,2.33-0.84,3.45-1.35
		C971.36,1753.92,969.55,1753.93,967.75,1753.84z"/>
	<path d="M1009.08,1740.33c-6.04,3.07-13.91,5.53-19.6,5.47c-4.41-0.19-2.06,0.06-6.53-1c-0.63-0.15-2.25-0.78-3-1.07
		c-0.08-0.03-0.15-0.07-0.23-0.1c-10.29-4.9-15.19-8.81-23.05-16.66c-3.02-3.14-5.29-5.83-7.39-8.89c-1.18-1.85-2.58-3.78-3.08-5.91
		c-0.08,5.39,2.52,10.64,4.84,15.44c6,11.2,15.21,21.23,27.09,26.19c12.95,5.5,27.35-1.34,37.24-9.92
		c5.8-5.02,10.54-11.22,14.01-18.06C1023.12,1731.92,1017.16,1736.28,1009.08,1740.33z"/>
	<path d="M1100.11,1696.79c-8.12,8.49-14.81,15.15-23.59,20.48c-5.93,3.39-6.77,4.29-12.3,5.45c-0.78,0.19-7.63,1.07-12.65,0.54
		c-2.21-0.32-4.39-0.78-6.55-1.35c-3.45-0.91-6.85-1.99-10.15-3.35c-7.7-3.45-12.85-6.45-18.05-11.8c-2.66-2.54-4.5-4.96-5.86-8.16
		c-0.44-1.27-1.28-3.01-0.94-4.3c-0.69,1.01-0.44,2.45-0.48,3.62c0.2,3.81,1.51,7.47,3.47,10.72c4.97,8.96,13.23,15.71,22.35,20.18
		c5.56,2.6,11.43,4.74,17.6,5.16c5.53,0.2,11.2-0.59,16.41-2.45c6.56-2.65,11.99-7.56,16.83-12.61c5.53-6.07,9.83-13.15,13.47-20.48
		C1100.02,1697.52,1101.58,1695.05,1100.11,1696.79z"/>
</g>
<g id="Layer_3">
</g>
<g id="Layer_2">
	<path class="st0" d="M497.72,695.85c-0.08-0.27-0.2-0.52-0.35-0.76"/>
	<g>
		<path d="M792.62,738.85c0.02,0,0.04,0.01,0.06,0.01c0.18,0.02,0.35,0.05,0.53,0.07c-0.21-0.04-0.58-0.1-0.9-0.13
			C792.41,738.81,792.52,738.83,792.62,738.85z"/>
		<path d="M1118.14,1354.75c-8-29.8-18.21-58.96-27.25-88.46c-9.39-29.58-17.63-59.63-30.58-87.92
			c-12.23-27.03-26.83-52.93-42.09-78.35c-7.6-12.72-15.69-25.15-23.06-38.02c-7.93-13.84-14.93-28.2-21.16-42.88
			c-8.44-19.82-20.39-54.12-29.04-79.55c-10.14-29.72-20.41-59.42-29.68-89.43c-5.09-16.41-9.08-33.13-13.45-49.74
			c-3.53-13.22-7.5-26.3-11.7-39.32c0.51-3.72,0.14-7.55-1.33-10.92c2.99-1.44,5.39-3.74,6.71-7.33c1.63-4.71,1.28-9.84,1.2-14.75
			c-0.1-3.79-0.13-7.59-0.04-11.38c0.5-16.23,1.56-25.15,5.74-41.18c4.57-15.94,8.73-24.96,17.3-39.88
			c12.3-20.78,25.97-41.02,33.84-64.03c3.18-8.77,5.31-17.9,6.36-27.17c0.25-2.41,0.52-4.84,0.67-7.27
			c0.87,0.78,1.76,1.51,2.67,2.16c3.57,2.53,8.04,1.78,12.16,1.86c9.39-0.14,18.8-0.6,28.11-1.91c13.55-1.95,28.19-5.5,37.56-16.21
			c4.63-5.42,8.32-11.88,10.08-18.81c2.19-10.38-2.49-20.53-5.45-30.29c-5.91-17.56-8.51-32.02-9.89-47.52
			c-1.98-20.42-1.95-41.06-5.85-61.26c-2.56-14.52-7.75-28.63-15.63-41.11c-6.04-8.52-13.62-15.79-21.21-22.92
			c-13.9-12.58-28.79-24.52-45.85-32.51c-12.04-5.55-24.8-9.52-37.88-11.67c-4.64-0.8-9.32-1.42-14.03-1.73
			c-1.93-0.04-3.92-0.32-5.84-0.13c0.14-0.16,0.28-0.31,0.41-0.47c0.24-0.26,0.5-0.5,0.79-0.71c-0.73,0.25-1.33,0.73-1.96,1.17
			c-0.09,0.06-0.18,0.11-0.26,0.17c-0.09,0.02-0.18,0.03-0.28,0.05c0.06,0,0.11,0.01,0.17,0.01c-8.04,5.15-16.08,7.77-24.9,11.28
			c-10.44,3.92-20.89,7.82-31.43,11.46c-10.1,3.47-20.14,7.21-30.59,9.5c-21.59,4.82-38,6.26-61.4,7.5
			c-33.66,1.54-67.4,0.33-100.9-3.29c-26.56-2.98-48.01-5.63-75.87-11.02c-13.51-2.86-26.76-6.8-40.2-9.97
			c-7.03-1.73-14.08-3.41-21.12-5.1c-5.82-2.33-11.93-3.95-18.16-4.64c-0.68-0.22-1.37-0.44-2.05-0.67
			c-1.51-0.58-3.27-0.91-4.33-2.17c0.49,1.15,1.64,1.88,2.67,2.59c-1.54-0.05-3.08,0.03-4.51,0.59c-0.06,0.04-0.12,0.09-0.18,0.14
			c-18.22,1.9-35.74,8.71-51.18,18.48c-13.37,8.58-24.93,19.65-35.36,31.57c-9.04,10.6-17.16,22.03-23.65,34.38
			c-5.33,10.07-9.43,20.75-13.24,31.47c-5.06,14.98-9.4,30.23-12.44,45.76c-2.94,15.53-4.41,31.3-7.29,46.85
			c-1.81,9.85-4.34,19.62-8.22,28.87c-1.39,3.24-2.92,6.42-4.5,9.58c-1.51,3.08-3.22,6.21-3.34,9.71
			c0.34,12.41,14.62,18.38,24.35,22.76c10.49,4.59,21.27,8.59,32.47,11.06c9.29,2.1,18.74,3.5,28.24,4.08
			c5.4,0.56,10.92-0.02,16.28,0.81c-0.47,6.65-0.07,13.33,1.56,19.89c2.66,9.52,8.4,17.77,13.4,26.18
			c7.36,12.35,15.89,23.91,24.9,35.09c13.86,17.85,28.23,45.48,31.36,72.82c-0.59-1.72-1.19-3.53-1.8-5.43
			c-0.8-2.36-1.6-4.74-2-7.21c-0.27,2.56-0.09,5.14,0.12,7.7c0.97,12.94,2.64,28.06,14.32,35.94c0.12,0.09,0.25,0.17,0.37,0.25
			c-2.2,2.5-3.74,5.54-5.01,8.59c-4.95,12.26-5.32,25.64-5.31,38.68c-0.1,4.71-1.15,9.49-0.13,14.15c0.57,1.86,1.52,3.26,2.72,4.31
			c-8.54,15.86-17.13,31.77-24.52,48.24c-10.28,23.07-19.23,46.72-29.01,70.01c-26.62,64.69-53.24,129.37-79.84,194.07
			c-22.74,54.73-46.27,109.07-69.53,166.85c-15.98,40.04-31.28,80.38-44.41,121.45c-11.75,38.96-20.92,78.91-24.45,119.51
			c-1.77,20.62-1.37,41.37-0.11,62.02c1.49,22.37,4.07,44.72,9.22,66.56c2.53,10.13,5.25,20.25,9.1,29.97
			c4.74,12.11,11,23.59,18.5,34.21c2.59,3.69,5.35,7.31,8.44,10.6c0.02,0.12,0.04,0.24,0.06,0.35c1.17,7.34,4.77,14.23,11.31,18.1
			c11.91,7.25,31.05,5.61,42.69-1.58c3.01-1.94,5.63-4.46,7.69-7.4c0.28-0.39,0.55-0.79,0.81-1.2c0.69,1.14,1.41,2.25,2.18,3.34
			c4.45,5.63,9.05,11.54,15.31,15.25c10.56,6.07,18.93,8.5,30.92,4.94c4.06-1.22,7.92-3.14,11.32-5.68c0.24-0.2,0.63-0.48,0.98-0.74
			c1.28-0.44,2.42-1.17,3.19-2.35c-2.43,1.32-5.29,1.67-7.83,2.86c0.53,0.04,1.08,0.04,1.63,0.02c-5.97,1.67-11.37,1.91-18.04,1.1
			c-1.98-0.26-3.9-0.8-5.74-1.57c-4.81-2.18-9.3-5.04-13.56-8.15c-2.69-2.37-5.18-4.98-7.81-7.42c-9.9-9.28-14.68-18.24-22.56-32.86
			c1.52,10.23,4.04,20.7,9.14,29.77c-4.48,3.76-8.74,5.79-14.94,6.92c-10.71,1.93-29.06-0.15-34.47-5.54
			c-3.39-2.37-5.96-8.82-7.34-11.98c-0.88-2.13-5-13-5.45-18.26c-0.9,4.53-0.99,9.22-0.61,13.86c-2.14-4.38-3.83-8.38-4.68-10.47
			c-9.75-23.57-17.62-48.05-22.42-73.12c-3.51-18.23-4.77-33.34-6.16-54.03c-1.04-20.36-1.25-40.79,0.69-61.11
			c3.15-33.7,11.58-71.84,22.31-108.22c10.2-32.89,22.11-65.23,34.5-97.35c21.09-54.09,42.15-103.83,63.79-154.77
			c29.43-70.12,57.94-140.62,87.02-210.88c11.03-26.9,22.16-53.75,33.01-80.73c7.98-20.97,14.86-42.47,20.09-64.26
			c4.86,3.77,13.39,2.56,19.23,2.18c19.44-2.91,38.22-5.17,60.82-6.63c18.56-1.69,37.19-2.67,55.8-1.44
			c1.02,0.06,2.05,0.1,3.07,0.14c-4.27,4.13-8.41,8.39-12.38,12.84c-4.24,5.02-9.1,9.74-12.16,15.61
			c-4.79,8.95-3.66,19.85,0.94,28.64c2.07,4.07,4.52,8.04,7.65,11.39c2.66,2.62,6.61,3.47,10.14,2.3c4.45-1.34,8.15-4.27,11.83-7
			c5.5-4.12,10.81-8.48,15.96-13.03c11.48-10.04,22.45-20.66,34.01-30.6c-1.44,3.78-2.74,7.61-3.86,11.49
			c-7.28,27.81-9.16,56.69-11.39,85.26c-2.15,32.86-3.7,65.77-3.99,98.7c-0.2,30.16,0.18,60.43,4.27,90.36
			c2.53,20.37,7.29,40.41,13.06,60.08c3.26,10.95,6.71,21.85,10.71,32.55c2.69,6.63,4.94,13.61,8.81,19.65
			c6.66,8.58,17.38-1.14,23.35-5.95c5.89-5.03,11.57-10.31,17.28-15.55c18.92-17.5,37.08-36.07,52.13-57.04
			c4.45,3.14,9.39,4.87,14.19,2.96c13.52-6.78,27.98-23.33,34.69-36.83c4.89-9.68,7.57-20.31,8.02-31.14
			c0.4-6.6-0.51-13.18-1.3-19.71c-4.64-34.11-9.67-68.18-15-102.19c-3.14-18.8-5.77-37.97-12.9-55.77c-0.93-2.31-2-4.56-3.14-6.77
			c0.17,0.22,0.33,0.45,0.5,0.68c6.94,9.2,15.44,17.77,26.15,22.41c4.5,2.09,9.36,3.22,14.29,3.69c5.24,1.01,9.62-1.97,13.03-5.64
			c3.46-3.73,6.61-7.76,10.36-11.21c3.41-2.96,5.43-4.54,11.62-7.95c4.16-2.1,7.28-5.04,6.12-10.09c-0.7-2.61-2.63-4.61-4.24-6.7
			c-7.66-9.87-19.47-24.66-25.94-40.13c-6.65-14.62-13.93-35.46-24.58-53.33c0.46-0.04,0.92-0.08,1.41-0.12
			c10.83-1.33,23.37,0.51,32.35-6.89c1.64-1.51,2.55-3.59,3.25-5.67c0.04-0.13,0.07-0.26,0.11-0.39c1.57,13.39,3.68,26.71,6.47,39.9
			c6.16,26.89,14.58,53.19,23.36,79.32c8.88,26.76,18.03,53.42,27.27,80.05c9.89,28.07,20.07,56.17,33.83,82.62
			c13.07,25.27,29.4,48.68,43.28,73.49c18.39,32.41,32.94,60.6,43.9,94.08c8.38,26.2,16.39,52.52,24.78,78.71
			c7.78,24.64,16.09,49.16,21.59,74.44c14.85,64.55,20.56,124.89,20.8,192.36c0.4,33.06-3.78,68.47-8.09,97.19
			c-1.8,11.4-4.07,22.72-6.35,34.04c-0.42,0.15-0.81,0.25-1.08,0.26c-1.5,0.15-2.55-0.27-4.17-0.87c-3.13-1.1-6.05-2.69-9.6-4.79
			c-4.32-2.63-8.13-4.13-10.98-8c1.53,7.15,11.25,14.44,18.32,15.41c2.51,0.52,5.15,0.59,7.21-0.56c-0.25,1.23-0.5,2.46-0.74,3.7
			c0.89-1.78,1.76-3.56,2.63-5.35c0.22-0.29,0.43-0.6,0.62-0.95c-0.07,0.06-0.16,0.11-0.24,0.17c2.75-5.75,5.34-11.57,7.67-17.5
			c11.1-26.85,13.7-56.05,15.39-84.78C1145.39,1513.9,1137.84,1432.88,1118.14,1354.75z M606.62,794.56
			c-25.69-4.12-51.75-0.75-77.38,2.2c-5.52,0.68-11.02,1.55-16.52,2.39c-0.08,0.01-0.14,0.02-0.23,0.03
			c-4.2,0.51-8.45,0.66-12.67,0.4c-0.05-0.01-0.11-0.02-0.16-0.04c-0.14-2.09-0.1-4.19-0.17-6.28c-0.11-7.33-1.12-11.24-1.59-16.27
			c-0.8-7.55-1.01-15.19-0.32-22.76c0.03-1.53,1.07-7.02,2.4-10.38c0.19-0.35,0.38-0.77,0.57-1.19c5.05,3.13,11.2,3.88,16.99,4.7
			c10.46,1.52,22.9,0.49,35.02-1.32c0.1,0.07,0.2,0.13,0.29,0.2c0.43,0,0.86,0.01,1.28,0.02c-0.12-0.13-0.25-0.26-0.37-0.4
			c14.49-2.23,28.41-5.49,37.78-6.74c17.72-2.58,39.17-1.25,52.23,1.1c6.09,0.99,12.18,2.02,18.22,3.31
			c7.75,1.86,15.54,3.61,23.49,4.41c4.58,0.46,9.17,0.68,13.76,0.73c-22.62,16.72-45.84,32.92-66.2,52.3
			C624.38,798.24,615.57,795.96,606.62,794.56z M664.67,832.84c-10.96,7.14-21.42,15.01-31.78,22.98c0.38-0.29,0.75-0.58,1.13-0.87
			c-2.72,2.05-5.41,4.17-8.28,6c-1.71,1.01-2.39,1.34-2.96,1.52c-0.08-0.09-0.15-0.17-0.22-0.25c-2.02-2.7-3.78-5.6-5.26-8.64
			c-0.21-0.43-0.4-0.87-0.59-1.31c-0.07-0.18-0.15-0.38-0.25-0.65c-1.7-5.29-1.3-4.12-1.55-7.88c-0.02-0.77,0.05-1.54,0.14-2.31
			c0.05-0.32,0.12-0.64,0.19-0.96c1.49-5.84,3.09-7.11,8.29-13.34c12.78-15.26,28.27-27.81,42.92-41.17
			c12.68-11.59,24.66-23.96,35.5-37.28c11.66-0.03,23.32-1.08,34.92-2.11c0.13-0.01,0.27-0.02,0.41-0.03
			c-11.46,13.86-23.16,27.62-32.93,42.75c-5.91,9.38-11.2,19.26-15.43,29.56C680.52,822.92,672.49,827.75,664.67,832.84z
			 M761.54,1169.94c-12.26,10.18-23.54,21.45-35.45,32.02c-6.26,5.24-7.21,6.92-13.1,10.3c-4.23-8.5-6.99-16.6-10.9-28.08
			c-7.36-22.41-13.68-45.25-17.45-68.57c-3.7-22.65-5.46-54.8-5.33-82.48c-0.14-36.52,1.45-73.02,3.74-109.46
			c1.16-17.15,2.51-34.29,4.64-51.35c0.9-6.9,3.45-24.72,6.92-36.19c3.49-11.97,6.45-17.35,12.38-29.42
			c10.01-20.24,21.58-39.7,31.01-60.23c4.14-0.32,8.3-0.6,12.45-0.76c-17.32,52.09-17.59,107.73-15.76,162.07
			c1.4,42.86,4.44,85.88,14.02,127.78c5.73,25.68,13.61,51.11,26.45,74.2c1.42,2.59,2.92,5.12,4.49,7.61
			c0.28,0.78,0.58,1.54,0.89,2.25c0.53,1.16,1.56,3.66,2.82,5.91c-0.14-0.13-0.28-0.26-0.42-0.39c0.86,1.44,1.76,2.85,2.71,4.23
			c2.55,3.62,6.37,8.31,10.77,11.78C784.98,1150.99,773.1,1160.27,761.54,1169.94z M827.34,956.5c2.94,18.49,5.76,37,8.39,55.54
			c2.79,19.81,5.51,35.98,7.36,52.9c3.49,28.58-9.82,47.11-25.3,64.85c-5.2,5.76-9.37,9.53-10.92,9.36
			c-2.87,0.22-6.81-1.36-10.86-3.78c-7.37-15.46-11.77-25.61-17.94-42.7c-26.85-66.83-31.16-132.11-32.73-203.43
			c-0.19-14.84-0.46-29.69,0.11-44.53c0.43-12.43,1.6-24.82,2.48-37.23c0.68-10.81,1.23-21.63,1.76-32.44
			c0.21,0.98,0.44,1.96,0.73,2.93c3.07,10.26,5.26,15.73,16.39,8.93c8.54-5.56,15.7-13.42,20.77-22.24
			c2.44-4.61,3.79-9.63,4.67-14.73c0.05,0.01,0.1,0.01,0.15,0.02c-0.27,0.73-0.3,1.55-0.27,2.33c0.14,2.61,0.94,5.12,1.38,7.68
			c1.27,6.78,1.45,13.86,1.26,20.84c-0.68,10.96-2.78,21.79-3.03,32.79c-0.57,18.12,0.95,36.57,6.46,53.91
			c2.57,7.83,6.08,15.33,9.97,22.58c4.84,8.85,6.52,11.2,9.21,19.71C822.36,924.98,824.74,940.81,827.34,956.5z M750.97,749.51
			c0.07-1.27,0.12-2.54,0.19-3.81c0.27-0.01,0.54-0.01,0.81-0.02C751.62,746.95,751.28,748.23,750.97,749.51z M752,745.69
			c5.92-0.18,11.85-0.11,17.75,0.52c5.09,0.35,12.02,2.14,19.92,3.37c-1.35,2.68-2.78,5.31-4.48,7.78
			c-2.47,3.9-6.35,7.73-11.15,11.91c-5.66,4.86-6.65,5.76-12.2,9.48c-0.54,0.34-1.08,0.69-1.63,1.02c-2.11-3.85-3.17-6.24-4.43-9.88
			C753.12,761.32,752.7,754.7,752,745.69z M852.44,814.94c6.39,14.09,9.34,23.35,16.89,38.23c4.92,9.29,17.89,26.3,22.65,32.31
			c-2.2,1.26-4.42,2.48-6.48,3.96c-4.77,3.24-8.94,7.24-12.68,11.61c-2.88,3.34-5.54,6.4-7.21,7.45c-4.02-0.22-2.36-0.02-7.54-1.2
			c-7.51-2.29-12.21-5.41-18.77-11.82c-12.78-13.22-23.07-30.2-31.05-50.23c-1.41-3.34-4.14-9.83-5.17-15.77
			c-0.35-8.11-0.47-17.57-0.44-24.27c-0.07-9.64,0.45-19.37-1.34-28.89c-1.14-5.99-2.7-11.95-5.26-17.5
			c-1.02-2.4-2.48-4.62-3.16-7.15c-0.14-0.53-0.22-1.1-0.16-1.65c0.38,0.05,0.75,0.1,1.14,0.14c6.31,0.71,12.65,0.92,19,1.02
			c3.46,3.26,6.71,6.73,9.62,10.5C832.94,774.6,844.6,796.83,852.44,814.94z M883.42,772.32c-0.46,0.49-0.94,0.98-1.46,1.46
			c-0.88,0.74-3.79,1.88-6.88,2.4c-7.13,1.53-9.65,0.5-21.48,4.49c-1.69,0.62-3.37,1.27-4.98,2.05c-3.08-5.01-6.45-9.76-10.15-14.03
			c-5.46-6.67-11.81-12.57-18.87-17.44c2.26,0.02,4.52,0.04,6.78,0.08c12.23,0.13,24.46,0.09,36.68,0.68
			c6.25,0.12,14.87,1.22,21.82-0.47c0.29,3.76,0.63,7.52,1,11.27C884.87,765.92,884.44,769.23,883.42,772.32z M885.58,714.6
			c-0.43,7.63,0.42,15.29-0.14,22.91c-0.11,0.61-0.26,1.2-0.46,1.79c-0.05,0.1-0.1,0.21-0.16,0.31c-0.07,0.08-0.14,0.16-0.22,0.24
			c-0.16,0.1-0.37,0.22-0.61,0.34c-0.01,0-0.02,0.01-0.03,0.01c-4.61,1.26-1.75,0.7-6.56,1.08c-8.69,0.02-17.38-0.56-26.07-0.83
			c7.46-5.79,14.08-12.66,19.09-20.69c5.94-9.73,9.99-21.03,10.13-32.51c-2.67,9.53-7.41,18.1-13.24,27.02
			c-7.35,10.53-12.28,16.94-20.79,26.07c-1.56-0.02-3.12-0.03-4.69-0.02c-9.17-0.2-18.37-0.08-27.56-0.23
			c1.51-0.73,3-1.49,4.46-2.32c24.04-13.82,42.43-36.53,43.1-65.15c-3.69,12.39-9.33,23.47-17.51,34.15
			c-3.67,5.04-11.8,15.34-21.89,25.38c-2.76,2.77-5.63,5.42-8.62,7.93c-6.79-0.12-13.57-0.4-20.33-1.11
			c-0.09-0.01-0.18-0.02-0.26-0.03c0.27,0.05,0.25,0.06-0.53-0.07c-0.21-0.03-0.41-0.05-0.62-0.08c0.08,0,0.16,0.01,0.25,0.02
			c-0.84-0.12-1.67-0.26-2.5-0.41c0.19-0.15,0.39-0.3,0.58-0.45c8.21-6.18,15.04-13.95,20.62-22.56
			c8.17-12.03,13.91-26.16,13.9-40.86c-3.27,11.96-8.98,22.35-15.92,33.17c-5.79,9.6-11.13,19.51-18.24,28.22
			c-0.61,0.8-1.2,1.56-1.78,2.33c-3.23-0.6-6.43-1.36-9.67-1.92c-5.49-0.88-11.02-1.53-16.57-1.77c-0.25-0.01-0.5-0.01-0.75-0.01
			c7.42-5.36,11.88-14.01,14.85-22.51c1.94-6.37,1.86-13.15,1.81-19.75c-1.53,5.38-2.73,10.87-4.59,16.15
			c-0.97,2.72-2.38,5.35-4,8.9c-2.69,5.96-5.61,12.26-9.74,16.56c-0.19,0.21-0.39,0.41-0.58,0.61c-9.51-0.12-18.99,0.61-28.47,1.39
			c7.99-7.13,14.06-17.44,15.24-27.79c-2.1,5.14-5.34,9.84-8.59,14.44c-3.05,4.45-6.47,9.65-9.5,13.58
			c-9.87,0.81-19.74,1.58-29.64,1.43c-2.71-2.47-6.08-6.3-6.66-7.22c-0.4-0.51-2.76-3.44-4.2-6.35c-1.33-2.61-2.1-5.42-2.57-8.68
			c-1.8,8.86,3.07,17.13,10.12,22.18c-1.32-0.05-2.64-0.11-3.96-0.19c-4.2-0.15-7.91-0.61-11.69-1.29c-6.1-5.94-9.38-10.23-14.13-17
			c-5.97-8.22-9.53-15.92-11.51-25.77c-1.62,16.3,6.79,31.47,19.24,41.47c-3.48-0.76-7.24-1.64-11.66-2.59
			c-6.65-1.26-13.33-2.45-20.03-3.4c-0.99-1.21-1.98-2.41-2.94-3.65c-4.66-6.14-14.07-18.75-18.86-28.23
			c-1.49-3.13-2.75-6.9-4.13-11.31c-0.82-3.1-1.97-6.23-2.14-9.44c-0.71,3.17-0.35,6.53-0.2,9.76c0.41,4.4,1.02,8.83,2.42,13.04
			c4.21,11.58,12.32,21.29,21.67,29.26c-7.95-1.01-15.94-1.64-23.96-1.61c-2.8-0.04-5.6,0.03-8.38,0.18
			c-9.17-13.16-17.38-26.99-25.45-40.85c-3.11-5.39-7.19-13.29-8.56-16.92c-1.51-3.78-2.74-7.59-2.86-11.57
			c-1.76,9.35,1.59,18.79,4.84,27.45c4.54,11.59,10.92,22.4,18.97,31.9c2.9,3.53,5.9,7.01,9.14,10.24
			c-10.6,0.84-21.09,2.75-31.55,4.76c-8.97-14.23-18.58-33.59-22.9-44.46c-2.29-5.65-4.46-11.35-6.6-17.07
			c-1.15-3.43-2.6-6.84-3.07-10.43c-0.45,3.54,0.19,7.15,0.59,10.67c0.89,5.87,2.05,11.71,3.6,17.44
			c4.33,16.81,13.91,31.83,25.81,44.34c-4.08,0.79-8.15,1.57-12.23,2.3c-2.94,0.5-6.22,0.97-9.72,1.36
			c-4.4-5.67-8.29-11.7-12.01-18.56c-4.72-8.89-8.51-18.24-12.76-27.36c-3.53-7.71-7.08-15.42-11.12-22.88
			c-2.35-4.11-4.48-8.5-7.88-11.87c1.89,2.95,2.77,5.99,3.94,9.34c2.27,6.79,4.3,13.66,6.54,20.46
			c6.41,20.25,14.21,37.42,28.68,51.33c-7.96,0.69-16.83,0.92-25.64,0.18c-13.41-0.28-19.11-7.16-24.22-20.39
			c4.4-23.63-1.25-48.63-13.63-69.09c-9.96-16.36-19.28-24.98-28.66-39.87c-6.31-9.9-15.72-24.52-17.86-31.23
			c-4.27-14.63-1.47-28.46,5.13-46.33c2.06-5.21,1.97-5.07,5.1-11.27c2.1-4.05,4.99-8.92,2.13-13.32
			c-4.27-6.24-10.98-10.11-17.22-14.12c-9.77-6.28-14.89-10-22.68-16.77c-9.13-8.01-16.5-16.25-19.5-28.42
			c-0.49,18.92,12.97,34.47,26.21,46.47c4.04,3.49,8.3,6.73,12.7,9.76c5.73,4.05,5.85,3.48,10.13,7.89
			c-2.52,5.04-5.08,10.07-7.08,15.36c-3.92,9.93-7,20.57-7.83,31.3c-3.48-1.58-7.37-2.19-11.01-3.31
			c-7.45-2.05-14.85-4.26-22.15-6.78c-10.09-3.26-28.42-10.81-29.66-11.43c2.82,1.19-1.17-0.5-2.29-0.97
			c0.44,0.19,0.88,0.37,1.33,0.56c-8.77-3.63-22.92-9.15-26.15-14.98c-0.08-0.23-0.18-0.45-0.24-0.68
			c-0.02-0.06-0.03-0.12-0.05-0.18c0.07-1.43,0.59-2.04,3.17-7.36c3.88-7.95,7.18-16.2,9.44-24.76c4.77-18.11,6.27-36.85,9.37-55.27
			c2.46-14.37,6.25-28.47,10.57-42.38c11.11-36.71,28.12-64.97,58.49-91.03c15.19-12.76,32.98-25.72,53.86-34.19
			c0.74-0.11,1.47-0.27,2.19-0.44c-0.06,1.05,0.64,2.14,1.7,2.4c1,0.18,2.02,0.16,3.03,0.15c0.44,0.05,0.88,0.1,1.32,0.14
			c3.32,0.44,6.65,0.69,9.99,0.86c6.43,3.18,12.96,6.16,19.59,8.88c15.07,6.26,30.57,11.52,46.52,15.02
			c23.83,5.01,48.02,8.07,72.17,11.05c36.99,4.41,74.3,6.18,111.53,4.42c21.08-1.01,42.22-3.05,62.85-7.59
			c14.6-3.3,28.78-8.36,42.35-14.66c9.45-4.55,18.67-9.61,27.47-15.34c5.79-3.88,11.66-7.89,16.25-13.19
			c1.93,0.27,3.78,1.08,5.66,1.58c3.75,1.22,7.46,2.54,11.13,3.99c10.12,3.87,14.29,5.81,25.49,11.27
			c21.7,11.08,37.3,21.55,53.65,36.75c5.55,4.89,17.11,17.02,18.23,18.96c3.97,4.96,8.79,15.87,9.3,17.26
			c11.09,28.35,8.84,53.63,12.28,84.77c1.2,11.87,3.1,23.69,6.35,35.19c2.64,10.16,6.9,19.86,8.96,30.16
			c0.15,1.68,0.71,3.7-0.19,7.05c-0.9,3.21-2.18,5.85-5.6,11.06c-4.15,5.01-4.67,5.35-9.29,8.05c-3.95,2.11-4.28,2.42-10.5,4.13
			c-15.02,3.95-27.76,4.31-45.33,4.32c-0.3-0.17-0.58-0.36-0.84-0.55c-5.01-4.43-6.55-7.63-10.51-15.37
			c-0.23-0.14-2.84-6.86-3.99-11.29c-0.6-2.28-1.12-4.59-1.46-6.93c-0.2-1.71-0.28-3.43-0.2-5.15c0.01-0.2,0.02-0.35,0.03-0.46
			c1.3-7.99,5.83-12.34,14.11-19.06c14.2-10.71,44.2-24.02,37.25-53.2c-0.11-0.54-0.22-1.07-0.34-1.61
			c-0.12,2.33-0.29,4.67-0.65,6.98c-1.58,9.62-5.74,15.11-12.93,20.89c-3.5,2.66-7.24,5.01-11.08,7.13
			c-5.18,2.82-10.52,5.36-15.43,8.63c-11.74,7.53-23.47,19.38-22.08,34.42c1.23,13.21,7.59,30.94,17.61,41.15
			c-0.97,3.34-2.21,6.62-3.33,9.9c-3.89,11.26-9.38,21.6-15.8,33.45c-9.72,18.22-20.6,35.78-31.12,53.54
			c-8.48,14.81-15.16,30.76-18.82,47.46C887.23,691.3,885.94,702.95,885.58,714.6z"/>
	</g>
	<path d="M501.46-13.06L501.46-13.06z"/>
</g>
</svg>
